#!OML:ASF I:\golf\golf\golf 2\Subject 1\2002-09-07\Subject1.ASF
:FULLY-SPECIFIED
:DEGREES
48
root -8.81918 17.934 5.6991 -21.9344 83.4484 -36.0218
lowerback 5.31836 0.848335 -0.338281
upperback 5.51729 1.25419 4.61183
thorax 2.6104 0.613569 4.93776
lowerneck -11.1022 0.482172 2.74186
upperneck 44.0254 5.46613 -5.83099
head 18.8896 2.64057 -2.05975
rclavicle 1.98785e-015 5.56597e-015
rhumerus -20.5686 45.2049 -99.5483
rradius 56.1847
rwrist -64.8014
rhand -40.4505 -17.3646
rfingers 7.12502
rthumb -13.4021 -46.9136
lclavicle 1.98785e-015 5.56597e-015
lhumerus -17.6444 -47.2443 106.957
lradius 53.6991
lwrist 64.9562
lhand -12.5575 65.7195
lfingers 7.12502
lthumb -166.48 84.7393
rfemur -28.7586 -0.105636 15.2512
rtibia 27.8242
rfoot -8.037 -3.29918
rtoes -1.19537
lfemur -26.6735 4.61026 -9.65052
ltibia 28.2013
lfoot -11.6466 -2.16148
ltoes -17.3492
49
root -8.81916 17.9344 5.69939 -22.3882 83.4221 -36.4942
lowerback 5.30062 0.851861 -0.254832
upperback 5.52973 1.26144 4.61393
thorax 2.634 0.619858 4.89292
lowerneck -11.1309 0.471989 2.74792
upperneck 44.0484 5.43951 -5.80469
head 18.909 2.63373 -2.05349
rclavicle 3.06128e-014 3.49861e-014
rhumerus -20.567 45.19 -99.5475
rradius 56.2187
rwrist -64.7708
rhand -40.2049 -17.3739
rfingers 7.12502
rthumb -13.1653 -46.9383
lclavicle 3.06128e-014 3.49861e-014
lhumerus -17.6251 -47.238 106.945
lradius 53.6912
lwrist 64.9982
lhand -12.7337 65.9111
lfingers 7.12502
lthumb -166.65 84.5365
rfemur -28.7406 -0.127502 15.3432
rtibia 27.7642
rfoot -8.0001 -3.31096
rtoes -1.53356
lfemur -26.6773 4.58813 -9.58024
ltibia 28.1822
lfoot -11.6381 -2.10163
ltoes -17.8383
50
root -8.81966 17.9351 5.69914 -22.9731 83.4094 -37.1028
lowerback 5.30753 0.84976 -0.152124
upperback 5.52241 1.26262 4.62075
thorax 2.62401 0.624215 4.84133
lowerneck -11.1294 0.4566 2.71857
upperneck 44.0484 5.40736 -5.76767
head 18.9026 2.6206 -2.03596
rclavicle 1.78906e-014 4.6118e-014
rhumerus -20.5715 45.1512 -99.57
rradius 56.2245
rwrist -64.7636
rhand -39.7758 -17.4568
rfingers 7.12502
rthumb -12.7517 -47.0474
lclavicle 1.78906e-014 4.6118e-014
lhumerus -17.6513 -47.3266 106.947
lradius 53.7259
lwrist 65.2677
lhand -13.3261 66.0887
lfingers 7.12502
lthumb -167.221 84.3223
rfemur -28.7273 -0.122982 15.4284
rtibia 27.7044
rfoot -7.91586 -3.38671
rtoes -1.85695
lfemur -26.7045 4.67911 -9.5269
ltibia 28.1651
lfoot -11.6588 -2.21824
ltoes -17.3171
51
root -8.82081 17.9368 5.69876 -23.3295 83.4288 -37.4694
lowerback 5.35496 0.821426 -0.120046
upperback 5.50319 1.22784 4.63972
thorax 2.58072 0.608418 4.84283
lowerneck -11.1091 0.464235 2.68075
upperneck 44.0415 5.42884 -5.76451
head 18.893 2.62338 -2.02344
rclavicle -5.1684e-015 -2.06736e-014
rhumerus -20.6271 45.2156 -99.6481
rradius 56.2072
rwrist -64.7956
rhand -39.6892 -17.3203
rfingers 7.12502
rthumb -12.6682 -46.9161
lclavicle -5.1684e-015 -2.06736e-014
lhumerus -17.6455 -47.3026 106.951
lradius 53.6979
lwrist 65.3951
lhand -13.8133 66.1744
lfingers 7.12502
lthumb -167.691 84.2079
rfemur -28.7026 -0.0259229 15.4232
rtibia 27.6576
rfoot -7.85756 -3.52626
rtoes -1.87989
lfemur -26.7182 4.69514 -9.49747
ltibia 28.1334
lfoot -11.6292 -2.33084
ltoes -16.5861
52
root -8.82163 17.9398 5.69805 -23.2659 83.4585 -37.4019
lowerback 5.39948 0.791422 -0.135316
upperback 5.4995 1.18878 4.64029
thorax 2.55514 0.588758 4.85252
lowerneck -11.1183 0.50196 2.6592
upperneck 44.0487 5.48732 -5.7465
head 18.9038 2.64438 -2.00018
rclavicle 8.74653e-015 1.19271e-014
rhumerus -20.6336 45.3076 -99.7097
rradius 56.157
rwrist -64.8202
rhand -39.6937 -17.0303
rfingers 7.12502
rthumb -12.6725 -46.6258
lclavicle 8.74653e-015 1.19271e-014
lhumerus -17.6511 -47.2328 106.932
lradius 53.697
lwrist 65.367
lhand -14.0249 66.2119
lfingers 7.12502
lthumb -167.895 84.1583
rfemur -28.6763 0.0408872 15.3651
rtibia 27.6258
rfoot -7.82845 -3.56847
rtoes -1.74774
lfemur -26.7011 4.57194 -9.49285
ltibia 28.0971
lfoot -11.552 -2.28886
ltoes -16.5383
53
root -8.82229 17.9414 5.69668 -22.9646 83.5139 -37.0808
lowerback 5.43263 0.783446 -0.146365
upperback 5.50891 1.17846 4.60997
thorax 2.54758 0.583704 4.82683
lowerneck -11.1086 0.533753 2.69169
upperneck 44.0386 5.51908 -5.731
head 18.8973 2.66414 -1.99264
rclavicle -1.70955e-014 4.77083e-015
rhumerus -20.6067 45.3371 -99.7265
rradius 56.1355
rwrist -64.9106
rhand -39.5193 -16.8343
rfingers 7.12502
rthumb -12.5043 -46.4402
lclavicle -1.70955e-014 4.77083e-015
lhumerus -17.6966 -47.2804 106.905
lradius 53.711
lwrist 65.3783
lhand -13.3945 65.9275
lfingers 7.12502
lthumb -167.287 84.4794
rfemur -28.6479 -0.00232173 15.2951
rtibia 27.6075
rfoot -7.7933 -3.5192
rtoes -1.30111
lfemur -26.6764 4.51136 -9.55633
ltibia 28.0634
lfoot -11.5164 -2.26594
ltoes -16.891
54
root -8.82306 17.9401 5.69665 -22.7012 83.5512 -36.8251
lowerback 5.41959 0.798575 -0.154443
upperback 5.51711 1.19749 4.57734
thorax 2.5621 0.593033 4.79685
lowerneck -11.1283 0.516357 2.74581
upperneck 44.0533 5.48384 -5.74341
head 18.9117 2.65787 -2.01537
rclavicle -1.82882e-014 -9.54166e-015
rhumerus -20.5898 45.2937 -99.7376
rradius 56.1296
rwrist -64.964
rhand -39.3624 -16.8266
rfingers 7.12502
rthumb -12.3531 -46.4416
lclavicle -1.82882e-014 -9.54166e-015
lhumerus -17.6876 -47.348 106.875
lradius 53.6522
lwrist 65.34
lhand -12.9925 65.612
lfingers 7.12502
lthumb -166.9 84.8194
rfemur -28.6627 -0.0936252 15.2682
rtibia 27.6038
rfoot -7.78529 -3.46589
rtoes -1.44721
lfemur -26.6946 4.60245 -9.63416
ltibia 28.0402
lfoot -11.5672 -2.32577
ltoes -17.1748
